inDegrees=no
num_controls=7
num_derivatives=13
num_iterations=126
num_multipliers=7
num_parameters=0
num_slacks=7
num_states=26
objective=0.476859
objective_accelerations=0.044609
objective_balance=0.003681
objective_effort=0.040863
objective_height=0.382051
objective_ligament=0.005656
solver_duration=1736.980135
status=Solve_Succeeded
success=true
DataType=double
version=3
OpenSimVersion=4.5
endheader
time	/jointset/ground_pelvis/pelvis_tilt/value	/jointset/ground_pelvis/pelvis_tx/value	/jointset/ground_pelvis/pelvis_ty/value	/jointset/hip_l/hip_flexion_l/value	/jointset/hip_l/hip_adduction_l/value	/jointset/hip_l/hip_rotation_l/value	/jointset/back/lumbar_extension/value	/jointset/patellofemoral_l/patellar_flexion_l/value	/jointset/knee_l/knee_flexion_l/value	/jointset/knee_l/knee_adduction_l/value	/jointset/knee_l/knee_rotation_l/value	/jointset/ankle_l/ankle_angle_l/value	/jointset/subtalar_l/subtalar_angle_l/value	/jointset/ground_pelvis/pelvis_tilt/speed	/jointset/ground_pelvis/pelvis_tx/speed	/jointset/ground_pelvis/pelvis_ty/speed	/jointset/hip_l/hip_flexion_l/speed	/jointset/hip_l/hip_adduction_l/speed	/jointset/hip_l/hip_rotation_l/speed	/jointset/back/lumbar_extension/speed	/jointset/patellofemoral_l/patellar_flexion_l/speed	/jointset/knee_l/knee_flexion_l/speed	/jointset/knee_l/knee_adduction_l/speed	/jointset/knee_l/knee_rotation_l/speed	/jointset/ankle_l/ankle_angle_l/speed	/jointset/subtalar_l/subtalar_angle_l/speed	/forceset/tau_hip_flexion_l	/forceset/tau_hip_adduction_l	/forceset/tau_hip_rotation_l	/forceset/tau_knee_flexion_l	/forceset/tau_ankle_angle_l	/forceset/tau_subtalar_angle_l	/forceset/tau_lumbar_extension	lambda_cid13_p0	lambda_cid13_p1	lambda_cid13_p2	lambda_cid13_p3	lambda_cid13_p4	lambda_cid13_p5	lambda_cid14_p0	/jointset/ground_pelvis/pelvis_tilt/accel	/jointset/ground_pelvis/pelvis_tx/accel	/jointset/ground_pelvis/pelvis_ty/accel	/jointset/hip_l/hip_flexion_l/accel	/jointset/hip_l/hip_adduction_l/accel	/jointset/hip_l/hip_rotation_l/accel	/jointset/back/lumbar_extension/accel	/jointset/patellofemoral_l/patellar_flexion_l/accel	/jointset/knee_l/knee_flexion_l/accel	/jointset/knee_l/knee_adduction_l/accel	/jointset/knee_l/knee_rotation_l/accel	/jointset/ankle_l/ankle_angle_l/accel	/jointset/subtalar_l/subtalar_angle_l/accel	gamma_cid13_p0	gamma_cid13_p1	gamma_cid13_p2	gamma_cid13_p3	gamma_cid13_p4	gamma_cid13_p5	gamma_cid14_p0
0.5	-0.09761650642055823	-0.04352072619724555	0.8053543870028338	0.9382815467870361	-0.3297948586984817	-0.07762776689411223	-0.7916698260239725	0.9236081557482018	0.9236081557482611	-0.1035479101048497	-0.1744575086976291	0.1470589462891377	0.01245560933353991	-0.1352295672899015	-0.1606778916056579	-0.4205035418829637	1.615772338564696	-0.02937488929774686	0.5661515453103191	-0.8365945062080815	1.785594222533425	1.785594222533377	0.1489872696951948	0.0001838033153951601	0.4264489762040102	0.1128227486632986	-0.2731542656849409	0.02189715450055388	-0.004738756674815746	-0.2484138809141127	0.08934588826070808	0.044280211733238	0.3288301061540559	-15.45402231251681	-18.05400679306299	4.170478769119926	-9.781995582906154	-701.6385430624026	-73.84356784905043	-9.659791265524326	0.2892822540492207	0.684200911829734	-0.1928461184364441	-1.522325725670264	0.3360254272791046	-0.5104124119763956	1.910451507721218	-1.426302263345174	-1.426302263345193	-0.2158783877625035	-0.003510562920007029	-0.2621007313078811	0.3440185192072112	-2.552387198639951e-07	-1.506561673536208e-07	1.526501053024682e-06	1.444723449897888e-07	-2.810740216619018e-07	-7.715555013939553e-08	-2.178574989045799e-07
0.51	-0.09895413132283422	-0.04509326874225739	0.8011406451577907	0.9543607289922631	-0.3300726438568179	-0.07199084998006128	-0.7999393871741293	0.9413900123837036	0.9413900123836743	-0.1020714313089998	-0.174455713931897	0.1513092916327092	0.01359974612763371	-0.132274102331699	-0.1538293304296809	-0.4221487643578034	1.599841106238315	-0.0261907595683311	0.5611685872040222	-0.8172313982358688	1.770524046794902	1.770524046794854	0.1463022494417033	0.0001752503325942451	0.4235505119297366	0.1159764920465004	-0.279439637022093	0.02223116922822792	-0.004878427228144955	-0.2520340453823976	0.08836403301121042	0.04431197132573111	0.3351218386549394	-16.03469483897857	-17.90240416470976	4.073520035391319	-9.561145437112451	-706.2326751813348	-73.64441962691052	-8.934623325445163	0.3018514383600343	0.6854058653785409	-0.1360052565887055	-1.662002916644923	0.3081069064126382	-0.5019236842595207	1.962189280208604	-1.585291260760388	-1.585291260760402	-0.2957432608382055	0.0007862814983071575	-0.3141537373313404	0.2966768115454779	-2.465975015293119e-07	-1.484218204910607e-07	1.490532728099405e-06	1.401058661349619e-07	-2.68380755606741e-07	-4.893155162481597e-08	-2.139412600483232e-07
0.52	-0.100261567011201	-0.04659728124653031	0.7969133220990832	0.9702739026881181	-0.3303188876857318	-0.06640569988193595	-0.8080127274769172	0.9590135840554896	0.9590135840553734	-0.1006219885990257	-0.1744539419064975	0.1555285654411688	0.01477454526829327	-0.1291917245073124	-0.1469718834578709	-0.4232197846158802	1.582570636691015	-0.02306662341332107	0.5557981821255984	-0.7973503367341535	1.753937229790197	1.753937229790148	0.1435800525203823	0.0001792552481308494	0.4202346691816925	0.1189552179764542	-0.2857250083592513	0.02256518395589636	-0.005018097781483985	-0.2556542098506834	0.08738217776171209	0.04434373091821762	0.3414135711558184	-16.61744494956062	-17.75062140306877	3.976743716885326	-9.384618777707496	-710.8903706197541	-73.49748478046607	-8.211660943162476	0.3146648272861474	0.6859780709962476	-0.07800567508386755	-1.790173169854358	0.3240267123979662	-0.587901806401764	2.014042213621781	-1.729630516581687	-1.729630516581683	-0.2233137213283854	-0.00099898325249443	-0.3455764260620768	0.3090150285575606	-2.428458848789542e-07	-1.998708275803062e-07	1.443614120860072e-06	1.292069191411531e-07	-2.614753508479254e-07	-3.67650596816223e-08	-2.154983607269881e-07
0.53	-0.1015375793934002	-0.04803272731979805	0.7926781817768521	0.986007778237962	-0.3305342459571401	-0.06087637053168838	-0.8158848357677736	0.9764638343452544	0.9764638343451657	-0.09919984925162284	-0.1744523097744297	0.1597126521807072	0.01597819691445701	-0.1259932541188136	-0.1401207482883689	-0.4237104317252637	1.563990751026184	-0.02001688398175173	0.5500052409189506	-0.7770001471528726	1.735871101669186	1.735871101669135	0.1408435497756243	0.0001463618646185207	0.4165197481506006	0.1217444955561622	-0.2917079000611524	0.02280464299855173	-0.005113996503637411	-0.2594488228597595	0.08653430074533214	0.04419572940371875	0.3474163132515961	-17.16104211066169	-17.51801784666736	3.856108749269245	-9.150574074296525	-715.4540649869308	-73.23969830937565	-7.498099206812141	0.32504035309156	0.6841933722642926	-0.01996858279707078	-1.923984090775823	0.2934856716605292	-0.5845564499869927	2.056183473137585	-1.881319670632133	-1.881319670632467	-0.2994779373438919	-0.004274191867083652	-0.3938918128445499	0.2591616920328638	-2.339469436760695e-07	-2.036204213896512e-07	1.40084770537504e-06	1.236283237996922e-07	-2.49583738966615e-07	-1.228374191727102e-08	-2.11372994543381e-07
0.54	-0.1027810866300259	-0.04939975961490355	0.788441060112741	1.001549437365959	-0.3307194992116075	-0.0554068838279469	-0.8235513069342665	0.993726180211656	0.9937261802115951	-0.09780520680893078	-0.1744509745113856	0.1638577013356921	0.01720879685028891	-0.1226906953919104	-0.1332891278254209	-0.4236160529919037	1.544127352322216	-0.01704562002521742	0.5438296528246754	-0.7562229118613283	1.716356345117322	1.716356345117269	0.1380806715790913	0.0001198814424467113	0.4124271522710357	0.1243448759100876	-0.2976907917630579	0.02304410204120369	-0.005209895225820801	-0.2632434358688356	0.08568642372895222	0.04404772788921635	0.3534190553473704	-17.70628139123453	-17.28817706152369	3.739399647942323	-8.966207589188034	-720.0699181400079	-73.037267320944	-6.817030017150108	0.3354824949671355	0.6820751296853941	0.03899949346481897	-2.046875777681834	0.3083316173909693	-0.6644311839272256	2.099451355674535	-2.019356202752098	-2.019356202752068	-0.2285888116833578	0.0002836090156223964	-0.4211113957567527	0.2712355834010032	-2.193530902023038e-07	-1.545961962510206e-07	1.362675204171362e-06	1.239360749672118e-07	-2.321754723965869e-07	2.582248952155265e-08	-2.009606437461961e-07
0.55	-0.1039910833696751	-0.05069863610554021	0.784207808648445	1.01688621386849	-0.3308753855787403	-0.05000102537468717	-0.8310079910013339	1.01078630855829	1.010786308558427	-0.09643820130675994	-0.1744498328109322	0.167960019481919	0.01846452095323354	-0.1192921900214983	-0.1264953902844861	-0.422935747404811	1.523022426416078	-0.01414743540860216	0.537276800786156	-0.7350571576162566	1.69543903921205	1.695439039212109	0.1353181248912592	0.0001031367813941752	0.4079779364141536	0.1267651386985023	-0.3034613738661193	0.02314234777830203	-0.005261385171028862	-0.2670164240558899	0.0846415181602119	0.04384038154160807	0.3591706536225054	-18.31304372918182	-17.02105204445014	3.615901626461641	-8.640509070541638	-724.5503405731675	-72.80958031258012	-6.171613489426401	0.3444839467037404	0.6766648895089535	0.09727542465729452	-2.173155655853043	0.2780119105661172	-0.6606747291163212	2.133649049418367	-2.162421477760873	-2.162421477744175	-0.3004436114130475	-0.003183968937682502	-0.46560551181593	0.2220636755994234	-2.031375099491049e-07	-9.967567065773816e-08	1.31924341569922e-06	1.242324991578182e-07	-2.137059223646918e-07	6.353782604280684e-08	-1.889502040802345e-07
0.5600000000000001	-0.1051666051778982	-0.05192984685612542	0.779984306106685	1.032005770180202	-0.3310028000943526	-0.04466268794487402	-0.8382513152078521	1.027630363107202	1.02763036310754	-0.09509889247428698	-0.1744489646501406	0.1720160897033445	0.01974337609386987	-0.1157957091060553	-0.11975597981513	-0.4216662684846836	1.50068331415901	-0.01135124972121441	0.5303254481355566	-0.7135509397513804	1.673141585572934	1.673141585573104	0.1325413376402312	6.517350946188016e-05	0.4031775673107911	0.1289710834484257	-0.3092319559691834	0.02324059351539875	-0.005312875116263106	-0.2707894122429441	0.08359661259147202	0.04363303519399842	0.3649222518976381	-18.92214471836154	-16.75670359784629	3.496486699389016	-8.361078678813708	-729.0898595331595	-72.63482367392211	-5.56239877941205	0.3550776039734191	0.6712097153695883	0.1568341600717418	-2.29371304786772	0.2879318315454754	-0.7441313063432292	2.167544079635485	-2.295385749520884	-2.295385749520853	-0.2314369243225286	-0.00396011316031377	-0.4913420450529064	0.2283719757027305	-1.849758575605865e-07	-3.767958451887359e-08	1.269500482504922e-06	1.245153309761288e-07	-1.939628321785563e-07	1.007840886629777e-07	-1.750220577717407e-07
